<?xml version="1.0" encoding="UTF-8"?>
<svg width="154px" height="15px" viewBox="0 0 154 15" version="1.1" xmlns="http://www.w3.org/2000/svg" xmlns:xlink="http://www.w3.org/1999/xlink">
    <!-- Generator: Sketch 52.5 (67469) - http://www.bohemiancoding.com/sketch -->
    <title>Ontego Business Mobi Copy</title>
    <desc>Created with Sketch.</desc>
    <g id="Symbols" stroke="none" stroke-width="1" fill="none" fill-rule="evenodd">
        <g id="Header-blau-default" transform="translate(-134.000000, -18.000000)" fill="#FFFFFF">
            <path d="M144.704,23.232 C144.704,26.56 142.592,28.768 139.264,28.768 C135.952,28.768 134,26.752 134,23.536 C134,20.208 136.112,18 139.44,18 C142.752,18 144.704,20.016 144.704,23.232 Z M142.304,23.44 C142.304,20.784 141.392,18.704 139.36,18.704 C137.184,18.704 136.4,20.784 136.4,23.328 C136.4,25.984 137.312,28.064 139.344,28.064 C141.52,28.064 142.304,25.984 142.304,23.44 Z M154.784,28.64 C154.16,28.608 153.2,28.576 152.64,28.576 C152.08,28.576 151.2,28.608 150.576,28.64 L150.576,28.352 C150.896,28.304 151.104,28.208 151.264,28.048 C151.568,27.744 151.584,27.328 151.584,25.248 C151.584,24.256 151.568,23.872 151.536,23.536 C151.488,22.8 151.328,21.952 150.064,21.952 C149.648,21.952 149.168,22.032 148.864,22.272 L148.864,26.352 C148.864,27.424 148.896,27.664 149.024,27.92 C149.168,28.192 149.568,28.352 149.824,28.352 L149.824,28.64 C149.2,28.608 148.304,28.576 147.744,28.576 C147.184,28.576 146.24,28.608 145.616,28.64 L145.616,28.352 C145.824,28.352 146.16,28.272 146.4,28 C146.672,27.696 146.688,27.248 146.688,25.872 L146.688,23.68 C146.688,22.656 146.672,22.272 146.512,22.032 C146.304,21.712 145.84,21.712 145.664,21.696 L145.664,21.392 C145.952,21.408 146.816,21.376 147.744,21.248 C148.16,21.2 148.48,21.136 148.736,21.056 L148.832,21.104 L148.832,21.92 C148.912,21.84 149.664,21.024 151.248,21.024 C152.576,21.024 153.376,21.632 153.648,22.656 C153.728,22.976 153.76,23.584 153.76,24.08 L153.76,26.352 C153.76,27.36 153.808,27.712 153.968,27.952 C154.096,28.128 154.352,28.32 154.784,28.352 L154.784,28.64 Z M161.264,27.904 C160.928,28.256 160.176,28.72 158.896,28.72 C157.392,28.72 156.8,28.16 156.592,27.28 C156.528,26.976 156.496,26.624 156.496,25.616 C156.496,24.16 156.496,23.44 156.528,21.984 L155.52,21.984 L155.52,21.68 C155.744,21.584 156.464,21.248 156.912,20.864 C157.488,20.384 158.16,19.504 158.416,19.168 L158.688,19.168 L158.688,21.184 L161.232,21.184 L161.232,21.984 L158.688,21.984 L158.688,25.968 C158.688,26.96 158.784,27.888 160.24,27.888 C160.704,27.888 161.008,27.744 161.136,27.696 L161.264,27.904 Z M164.032,24.432 L164.032,24.464 C164.032,25.056 164.096,25.616 164.224,26.048 C164.688,27.6 165.984,27.712 166.816,27.712 C167.68,27.712 168.272,27.376 168.272,27.376 L168.432,27.584 C168.432,27.584 167.616,28.72 165.552,28.72 C164.752,28.72 161.84,28.592 161.84,25.088 C161.84,23.712 162.432,21.024 165.632,21.024 C167.28,21.024 167.92,21.824 168.16,22.176 C168.624,22.848 168.688,23.6 168.688,24.336 L168.688,24.432 L164.032,24.432 Z M166.496,23.728 L166.496,23.584 C166.496,22.464 166.272,21.632 165.28,21.632 C164.352,21.632 164.048,22.272 164.048,23.728 L166.496,23.728 Z M177.616,22.224 L175.68,21.984 C175.84,22.144 176.416,22.608 176.416,23.664 C176.416,25.184 175.232,26.288 172.992,26.288 C172.72,26.288 172.464,26.272 172.208,26.24 C171.952,26.48 171.92,26.784 171.92,26.896 C171.92,27.472 172.352,27.52 172.688,27.52 C173.44,27.52 173.728,27.488 174.8,27.488 C175.664,27.488 177.344,27.6 177.344,29.632 C177.344,31.184 175.84,32.848 172.72,32.848 C170.32,32.848 169.168,32.096 169.168,30.992 C169.168,29.648 170.64,29.248 171.104,29.152 C170.544,28.928 170.304,28.432 170.304,27.968 C170.304,27.024 171.056,26.464 171.744,26.144 C170.576,25.856 169.728,25.152 169.728,23.696 C169.728,22.192 170.912,21.04 173.104,21.04 C173.728,21.04 174.32,21.168 174.768,21.328 L177.616,20.976 L177.616,22.224 Z M174.384,23.6 C174.384,23.088 174.272,21.568 173.04,21.568 C171.888,21.568 171.744,22.8 171.744,23.728 C171.744,24.24 171.856,25.76 173.088,25.76 C174.24,25.76 174.384,24.528 174.384,23.6 Z M175.696,30.304 C175.696,29.328 174.832,29.312 174.176,29.312 L171.584,29.312 C171.36,29.44 170.752,29.824 170.752,30.592 C170.752,32 172.288,32.128 172.88,32.128 C174.464,32.128 175.696,31.584 175.696,30.304 Z M186.016,24.816 C186.016,26.176 185.408,28.768 181.92,28.768 C179.296,28.768 178.016,27.232 178.016,24.96 C178.016,23.6 178.624,21.008 182.112,21.008 C184.736,21.008 186.016,22.544 186.016,24.816 Z M183.664,24.88 C183.664,21.776 182.56,21.632 181.984,21.632 C181.776,21.632 181.392,21.664 181.056,22.016 C180.672,22.432 180.368,23.2 180.368,24.896 C180.368,28 181.472,28.144 182.048,28.144 C182.256,28.144 182.64,28.112 182.976,27.76 C183.36,27.344 183.664,26.576 183.664,24.88 Z M196.734,21.37 C196.734,23.54 194.494,23.778 194.382,23.778 C195.6,23.89 196.51,24.576 196.51,25.85 C196.51,26.69 196.202,27.376 195.782,27.768 C194.914,28.594 193.878,28.622 192.744,28.622 C192.1,28.622 191.652,28.58 190.994,28.58 C190.63,28.58 190.266,28.608 189.874,28.636 L189.902,28.454 C190.098,28.44 190.42,28.356 190.63,28.16 C190.896,27.908 190.98,27.586 191.176,26.27 L191.904,21.314 C191.96,20.936 192.016,20.544 192.016,20.306 C192.016,19.774 191.75,19.662 191.274,19.592 L191.302,19.41 C191.778,19.438 192.17,19.452 192.646,19.452 C193.108,19.452 193.304,19.424 194.13,19.424 C196.104,19.424 196.734,20.418 196.734,21.37 Z M195.558,21.37 C195.558,20.026 194.704,19.872 193.738,19.872 C193.514,19.872 193.276,19.9 193.206,19.9 L192.674,23.526 C192.856,23.54 193.052,23.54 193.262,23.54 C193.612,23.54 193.99,23.54 194.27,23.47 C195.208,23.204 195.558,22.266 195.558,21.37 Z M195.334,25.71 C195.334,24.128 194.046,24.002 193.136,24.002 C192.842,24.002 192.758,24.002 192.604,24.016 L192.142,27.138 C192.1,27.404 192.072,27.586 192.072,27.74 C192.072,27.95 192.184,28.076 192.394,28.118 C192.604,28.16 192.758,28.16 192.968,28.16 C193.556,28.16 195.334,28.132 195.334,25.71 Z M204.06,27.46 C203.948,27.628 203.388,28.706 202.506,28.706 C202.24,28.706 201.848,28.594 201.848,28.048 C201.848,27.768 201.974,27.236 201.974,27.236 C201.246,28.174 200.504,28.706 199.678,28.706 C198.46,28.706 198.432,27.782 198.432,27.558 C198.432,27.124 198.628,26.214 198.726,25.724 L198.95,24.604 C199.118,23.736 199.188,23.428 199.188,23.246 C199.188,23.05 199.118,22.938 198.936,22.938 C198.628,22.938 198.306,23.442 198.236,23.54 L198.054,23.4 C198.334,22.896 198.88,22.154 199.594,22.154 C200.252,22.154 200.28,22.644 200.28,22.854 C200.28,23.176 200.126,23.876 200.014,24.464 L199.776,25.654 C199.552,26.802 199.51,27.11 199.51,27.362 C199.51,27.488 199.524,27.978 200.224,27.978 C201.134,27.978 201.96,26.998 201.96,26.998 L202.716,22.238 L203.808,22.238 C203.416,24.156 202.94,27.012 202.94,27.6 C202.94,27.824 202.996,27.922 203.178,27.922 C203.486,27.922 203.808,27.418 203.878,27.32 L204.06,27.46 Z M209.552,22.924 C209.552,23.232 209.328,23.484 208.992,23.484 C208.628,23.484 208.558,23.246 208.502,23.148 C208.39,22.924 208.348,22.588 207.802,22.588 C207.438,22.588 206.822,22.798 206.822,23.582 C206.822,23.862 206.878,24.184 207.438,24.618 L208.124,25.15 C208.866,25.724 209.118,26.144 209.118,26.844 C209.118,28.118 208.096,28.72 206.92,28.72 C205.926,28.72 205.142,28.482 205.142,27.922 C205.142,27.628 205.366,27.362 205.716,27.362 C206.108,27.362 206.192,27.656 206.234,27.74 C206.36,27.992 206.472,28.286 206.962,28.286 C207.312,28.286 208.138,28.216 208.138,27.166 C208.138,26.718 207.942,26.396 207.494,26.032 L206.822,25.486 C206.136,24.926 205.87,24.59 205.87,23.89 C205.87,22.98 206.556,22.154 207.998,22.154 C208.754,22.154 209.552,22.336 209.552,22.924 Z M213.462,19.886 C213.462,20.278 213.224,20.656 212.734,20.656 C212.286,20.656 212.104,20.348 212.104,20.026 C212.104,19.634 212.342,19.256 212.832,19.256 C213.28,19.256 213.462,19.564 213.462,19.886 Z M213.28,27.446 C213,27.95 212.468,28.692 211.726,28.692 C211.432,28.692 211.04,28.566 211.04,28.006 C211.04,27.684 211.166,27.04 211.292,26.396 L211.628,24.618 C211.796,23.75 211.852,23.428 211.852,23.232 C211.852,23.092 211.838,22.924 211.614,22.924 C211.306,22.924 210.998,23.428 210.928,23.526 L210.746,23.386 C211.026,22.882 211.544,22.14 212.286,22.14 C212.58,22.14 212.958,22.266 212.958,22.826 C212.958,23.148 212.846,23.792 212.72,24.436 L212.384,26.214 C212.216,27.082 212.146,27.404 212.146,27.6 C212.146,27.74 212.174,27.908 212.398,27.908 C212.706,27.908 213.028,27.404 213.098,27.306 L213.28,27.446 Z M220.62,27.446 C220.34,27.95 219.794,28.692 219.08,28.692 C218.422,28.692 218.394,28.202 218.394,27.992 C218.394,27.67 218.548,26.97 218.66,26.382 L218.898,25.164 C219.122,24.016 219.15,23.736 219.15,23.484 C219.15,23.358 219.15,22.868 218.45,22.868 C217.708,22.868 216.98,23.526 216.714,23.862 L215.958,28.608 L214.866,28.608 C215.258,26.69 215.734,23.834 215.734,23.246 C215.734,23.022 215.678,22.924 215.496,22.924 C215.188,22.924 214.866,23.428 214.796,23.526 L214.614,23.386 C214.726,23.218 215.286,22.14 216.168,22.14 C216.434,22.14 216.826,22.252 216.826,22.798 C216.826,23.078 216.7,23.61 216.7,23.61 C217.428,22.672 218.17,22.14 218.996,22.14 C220.214,22.14 220.228,23.064 220.228,23.288 C220.228,23.722 220.046,24.66 219.948,25.15 L219.724,26.214 C219.542,27.082 219.486,27.418 219.486,27.6 C219.486,27.796 219.556,27.908 219.738,27.908 C220.046,27.908 220.368,27.404 220.438,27.306 L220.62,27.446 Z M226.91,23.456 C226.91,25.374 224.418,25.444 223.158,25.444 C223.13,25.738 223.13,26.004 223.13,26.214 C223.13,27.726 223.788,28.006 224.46,28.006 C225.44,28.006 226.14,27.348 226.182,27.32 L226.28,27.404 C226.168,27.572 225.328,28.72 223.942,28.72 C222.836,28.72 222.066,28.034 222.066,26.326 C222.066,24.03 223.298,22.14 225.258,22.14 C226.392,22.14 226.91,22.728 226.91,23.456 Z M225.79,23.498 C225.79,23.26 225.762,22.574 224.992,22.574 C224.81,22.574 224.586,22.602 224.334,22.756 C223.914,23.022 223.382,23.666 223.2,25.094 C223.41,25.094 223.858,25.094 224.278,25.01 C225.3,24.828 225.79,24.282 225.79,23.498 Z M232.178,22.924 C232.178,23.232 231.954,23.484 231.618,23.484 C231.254,23.484 231.184,23.246 231.128,23.148 C231.016,22.924 230.974,22.588 230.428,22.588 C230.064,22.588 229.448,22.798 229.448,23.582 C229.448,23.862 229.504,24.184 230.064,24.618 L230.75,25.15 C231.492,25.724 231.744,26.144 231.744,26.844 C231.744,28.118 230.722,28.72 229.546,28.72 C228.552,28.72 227.768,28.482 227.768,27.922 C227.768,27.628 227.992,27.362 228.342,27.362 C228.734,27.362 228.818,27.656 228.86,27.74 C228.986,27.992 229.098,28.286 229.588,28.286 C229.938,28.286 230.764,28.216 230.764,27.166 C230.764,26.718 230.568,26.396 230.12,26.032 L229.448,25.486 C228.762,24.926 228.496,24.59 228.496,23.89 C228.496,22.98 229.182,22.154 230.624,22.154 C231.38,22.154 232.178,22.336 232.178,22.924 Z M237.516,22.924 C237.516,23.232 237.292,23.484 236.956,23.484 C236.592,23.484 236.522,23.246 236.466,23.148 C236.354,22.924 236.312,22.588 235.766,22.588 C235.402,22.588 234.786,22.798 234.786,23.582 C234.786,23.862 234.842,24.184 235.402,24.618 L236.088,25.15 C236.83,25.724 237.082,26.144 237.082,26.844 C237.082,28.118 236.06,28.72 234.884,28.72 C233.89,28.72 233.106,28.482 233.106,27.922 C233.106,27.628 233.33,27.362 233.68,27.362 C234.072,27.362 234.156,27.656 234.198,27.74 C234.324,27.992 234.436,28.286 234.926,28.286 C235.276,28.286 236.102,28.216 236.102,27.166 C236.102,26.718 235.906,26.396 235.458,26.032 L234.786,25.486 C234.1,24.926 233.834,24.59 233.834,23.89 C233.834,22.98 234.52,22.154 235.962,22.154 C236.718,22.154 237.516,22.336 237.516,22.924 Z M252.518,19.41 L252.49,19.578 C252.154,19.606 251.874,19.704 251.678,19.9 C251.482,20.11 251.44,20.306 251.37,20.698 C251.342,20.908 251.286,21.286 251.258,21.58 L250.726,26.592 C250.67,27.054 250.642,27.376 250.642,27.656 C250.642,27.978 250.712,28.398 251.384,28.454 L251.356,28.636 C250.81,28.608 250.404,28.58 249.914,28.58 C249.424,28.58 249.088,28.58 248.472,28.636 L248.5,28.454 C248.668,28.44 248.976,28.37 249.214,28.132 C249.466,27.894 249.522,27.418 249.564,27.124 C249.578,27.026 250.278,20.824 250.278,20.824 C250.18,21.076 250.068,21.328 249.928,21.566 L245.952,28.608 L245.644,28.608 L243.908,21.566 C243.852,21.314 243.768,21.076 243.754,20.824 L242.564,27.096 C242.522,27.32 242.494,27.544 242.494,27.754 C242.494,28.118 242.634,28.412 243.194,28.454 L243.166,28.636 C242.62,28.594 242.41,28.58 241.92,28.58 C241.43,28.58 241.332,28.58 240.716,28.636 L240.744,28.454 C240.912,28.44 241.22,28.37 241.458,28.132 C241.71,27.894 241.794,27.53 242.018,26.396 L242.942,21.664 C243.04,21.132 243.166,20.614 243.166,20.292 C243.166,20.124 243.138,20.026 243.096,19.942 C243.054,19.858 242.9,19.62 242.396,19.578 L242.41,19.41 C242.97,19.438 243.138,19.452 243.642,19.452 C243.852,19.452 244.216,19.452 244.44,19.424 L246.162,26.298 C246.218,26.522 246.246,26.718 246.274,26.956 C246.358,26.732 246.456,26.522 246.568,26.312 L250.46,19.41 C250.67,19.438 251.104,19.452 251.314,19.452 C251.818,19.452 251.902,19.452 252.518,19.41 Z M258.36,24.688 C258.36,27.04 257.058,28.72 255.308,28.72 C253.208,28.72 253.068,26.984 253.068,26.172 C253.068,23.82 254.37,22.14 256.12,22.14 C258.22,22.14 258.36,23.876 258.36,24.688 Z M257.226,24.618 C257.226,23.176 256.904,22.574 256.134,22.574 C254.748,22.574 254.202,24.702 254.202,26.228 C254.202,27.67 254.524,28.286 255.294,28.286 C256.68,28.286 257.226,26.144 257.226,24.618 Z M265.112,24.282 C265.112,25.99 264.37,27.18 264.3,27.292 C263.74,28.174 262.9,28.692 261.962,28.692 C261.22,28.692 260.884,28.454 260.674,28.3 L259.764,28.72 L259.68,28.65 C260.114,26.116 261.122,19.984 261.122,19.48 C261.122,19.088 260.968,18.962 260.352,18.92 L260.394,18.71 C260.758,18.71 261.318,18.654 261.486,18.626 C261.864,18.584 262.158,18.514 262.368,18.416 L262.424,18.472 C262.242,19.158 262.018,20.474 261.682,22.56 C261.682,22.56 261.584,23.19 261.528,23.526 C262.354,22.42 263.082,22.126 263.642,22.126 C264.118,22.126 265.112,22.252 265.112,24.282 Z M264.02,24.24 C264.02,23.764 263.95,22.84 263.124,22.84 C262.55,22.84 261.794,23.484 261.472,23.834 L260.814,28.062 C260.94,28.118 261.22,28.188 261.612,28.188 C262.522,28.188 263.054,27.712 263.376,27.124 C263.824,26.312 264.02,25.136 264.02,24.24 Z M269.232,19.886 C269.232,20.278 268.994,20.656 268.504,20.656 C268.056,20.656 267.874,20.348 267.874,20.026 C267.874,19.634 268.112,19.256 268.602,19.256 C269.05,19.256 269.232,19.564 269.232,19.886 Z M269.05,27.446 C268.77,27.95 268.238,28.692 267.496,28.692 C267.202,28.692 266.81,28.566 266.81,28.006 C266.81,27.684 266.936,27.04 267.062,26.396 L267.398,24.618 C267.566,23.75 267.622,23.428 267.622,23.232 C267.622,23.092 267.608,22.924 267.384,22.924 C267.076,22.924 266.768,23.428 266.698,23.526 L266.516,23.386 C266.796,22.882 267.314,22.14 268.056,22.14 C268.35,22.14 268.728,22.266 268.728,22.826 C268.728,23.148 268.616,23.792 268.49,24.436 L268.154,26.214 C267.986,27.082 267.916,27.404 267.916,27.6 C267.916,27.74 267.944,27.908 268.168,27.908 C268.476,27.908 268.798,27.404 268.868,27.306 L269.05,27.446 Z M273.086,18.472 C272.834,19.396 271.616,27.208 271.616,27.628 C271.616,27.81 271.672,27.908 271.854,27.908 C272.162,27.908 272.442,27.474 272.568,27.306 L272.75,27.446 C272.47,27.95 271.91,28.706 271.196,28.706 C270.538,28.706 270.51,28.216 270.51,28.02 C270.51,27.824 270.566,27.474 270.622,27.152 C271.014,24.744 271.77,20.04 271.77,19.48 C271.77,19.088 271.63,18.962 271.014,18.92 L271.042,18.71 C271.42,18.71 272.008,18.654 272.176,18.626 C272.554,18.584 272.834,18.514 273.03,18.416 L273.086,18.472 Z M276.73,19.886 C276.73,20.278 276.492,20.656 276.002,20.656 C275.554,20.656 275.372,20.348 275.372,20.026 C275.372,19.634 275.61,19.256 276.1,19.256 C276.548,19.256 276.73,19.564 276.73,19.886 Z M276.548,27.446 C276.268,27.95 275.736,28.692 274.994,28.692 C274.7,28.692 274.308,28.566 274.308,28.006 C274.308,27.684 274.434,27.04 274.56,26.396 L274.896,24.618 C275.064,23.75 275.12,23.428 275.12,23.232 C275.12,23.092 275.106,22.924 274.882,22.924 C274.574,22.924 274.266,23.428 274.196,23.526 L274.014,23.386 C274.294,22.882 274.812,22.14 275.554,22.14 C275.848,22.14 276.226,22.266 276.226,22.826 C276.226,23.148 276.114,23.792 275.988,24.436 L275.652,26.214 C275.484,27.082 275.414,27.404 275.414,27.6 C275.414,27.74 275.442,27.908 275.666,27.908 C275.974,27.908 276.296,27.404 276.366,27.306 L276.548,27.446 Z M281.774,22.322 L281.704,22.812 L279.94,22.812 L279.296,26.788 C279.268,26.942 279.24,27.166 279.24,27.348 C279.24,27.656 279.352,27.964 279.814,27.964 C279.912,27.964 280.374,27.964 281.158,27.306 L281.256,27.404 C280.5,28.426 279.856,28.72 279.254,28.72 C278.386,28.72 278.162,28.188 278.162,27.586 C278.162,27.208 278.218,26.83 278.302,26.368 L278.932,22.812 L278.022,22.812 L278.064,22.574 C278.19,22.56 278.652,22.476 278.89,22.238 C278.946,22.168 279.24,21.93 279.52,20.88 L279.576,20.67 L280.332,20.572 C280.332,20.572 280.108,21.706 280.024,22.322 L281.774,22.322 Z M287.616,22.826 C287.616,23.134 287.504,23.484 287.238,24.086 C286.314,26.172 284.27,29.756 283.766,30.54 C282.786,32.08 282.128,32.36 281.092,32.36 C280.896,32.36 279.846,32.346 279.846,31.66 C279.846,31.38 280.042,31.114 280.364,31.114 C280.686,31.114 280.77,31.338 280.826,31.436 C280.98,31.716 281.022,31.912 281.33,31.912 C281.582,31.912 282.142,31.898 282.898,30.778 C283.15,30.414 283.262,30.246 284.046,28.804 L283.066,23.47 C282.996,23.106 282.982,22.952 282.744,22.952 C282.548,22.952 282.338,23.232 282.128,23.526 L281.946,23.4 C282.576,22.224 283.052,22.14 283.416,22.14 C283.752,22.14 283.948,22.308 284.046,22.63 C284.116,22.868 284.592,25.36 284.844,27.67 C286.244,24.786 286.622,23.862 286.622,23.568 C286.622,23.428 286.58,23.372 286.482,23.232 C286.384,23.092 286.286,22.966 286.286,22.714 C286.286,22.532 286.44,22.14 286.958,22.14 C287.462,22.14 287.616,22.462 287.616,22.826 Z" id="Ontego-Business-Mobi-Copy"></path>
        </g>
    </g>
</svg>