<?xml version="1.0" encoding="UTF-8"?>
<svg width="104px" height="55px" viewBox="0 0 104 55" version="1.1" xmlns="http://www.w3.org/2000/svg" xmlns:xlink="http://www.w3.org/1999/xlink">
    <!-- Generator: Sketch 52.5 (67469) - http://www.bohemiancoding.com/sketch -->
    <title>Ontego_subline</title>
    <desc>Created with Sketch.</desc>
    <defs>
        <polygon id="path-1" points="0 0.453446809 23.8335652 0.453446809 23.8335652 23.5790298 0 23.5790298"></polygon>
        <polygon id="path-3" points="0.403406452 0.187562791 31.7135484 0.187562791 31.7135484 21.9997953 0.403406452 21.9997953"></polygon>
    </defs>
    <g id="Ontego_subline" stroke="none" stroke-width="1" fill="none" fill-rule="evenodd">
        <g id="Ontego-Logo-+-Claim-Copy-3" transform="translate(33.000000, 35.000000)" fill="#96999E">
            <path d="M12.522,1.802 L12.494,1.97 C12.158,1.998 11.878,2.096 11.682,2.292 C11.486,2.502 11.444,2.698 11.374,3.09 C11.346,3.3 11.29,3.678 11.262,3.972 L10.73,8.984 C10.674,9.446 10.646,9.768 10.646,10.048 C10.646,10.37 10.716,10.79 11.388,10.846 L11.36,11.028 C10.814,11 10.408,10.972 9.918,10.972 C9.428,10.972 9.092,10.972 8.476,11.028 L8.504,10.846 C8.672,10.832 8.98,10.762 9.218,10.524 C9.47,10.286 9.526,9.81 9.568,9.516 C9.582,9.418 10.282,3.216 10.282,3.216 C10.184,3.468 10.072,3.72 9.932,3.958 L5.956,11 L5.648,11 L3.912,3.958 C3.856,3.706 3.772,3.468 3.758,3.216 L2.568,9.488 C2.526,9.712 2.498,9.936 2.498,10.146 C2.498,10.51 2.638,10.804 3.198,10.846 L3.17,11.028 C2.624,10.986 2.414,10.972 1.924,10.972 C1.434,10.972 1.336,10.972 0.72,11.028 L0.748,10.846 C0.916,10.832 1.224,10.762 1.462,10.524 C1.714,10.286 1.798,9.922 2.022,8.788 L2.946,4.056 C3.044,3.524 3.17,3.006 3.17,2.684 C3.17,2.516 3.142,2.418 3.1,2.334 C3.058,2.25 2.904,2.012 2.4,1.97 L2.414,1.802 C2.974,1.83 3.142,1.844 3.646,1.844 C3.856,1.844 4.22,1.844 4.444,1.816 L6.166,8.69 C6.222,8.914 6.25,9.11 6.278,9.348 C6.362,9.124 6.46,8.914 6.572,8.704 L10.464,1.802 C10.674,1.83 11.108,1.844 11.318,1.844 C11.822,1.844 11.906,1.844 12.522,1.802 Z M18.164,7.08 C18.164,9.432 16.862,11.112 15.112,11.112 C13.012,11.112 12.872,9.376 12.872,8.564 C12.872,6.212 14.174,4.532 15.924,4.532 C18.024,4.532 18.164,6.268 18.164,7.08 Z M17.03,7.01 C17.03,5.568 16.708,4.966 15.938,4.966 C14.552,4.966 14.006,7.094 14.006,8.62 C14.006,10.062 14.328,10.678 15.098,10.678 C16.484,10.678 17.03,8.536 17.03,7.01 Z M24.716,6.674 C24.716,8.382 23.974,9.572 23.904,9.684 C23.344,10.566 22.504,11.084 21.566,11.084 C20.824,11.084 20.488,10.846 20.278,10.692 L19.368,11.112 L19.284,11.042 C19.718,8.508 20.726,2.376 20.726,1.872 C20.726,1.48 20.572,1.354 19.956,1.312 L19.998,1.102 C20.362,1.102 20.922,1.046 21.09,1.018 C21.468,0.976 21.762,0.906 21.972,0.808 L22.028,0.864 C21.846,1.55 21.622,2.866 21.286,4.952 C21.286,4.952 21.188,5.582 21.132,5.918 C21.958,4.812 22.686,4.518 23.246,4.518 C23.722,4.518 24.716,4.644 24.716,6.674 Z M23.624,6.632 C23.624,6.156 23.554,5.232 22.728,5.232 C22.154,5.232 21.398,5.876 21.076,6.226 L20.418,10.454 C20.544,10.51 20.824,10.58 21.216,10.58 C22.126,10.58 22.658,10.104 22.98,9.516 C23.428,8.704 23.624,7.528 23.624,6.632 Z M28.636,2.278 C28.636,2.67 28.398,3.048 27.908,3.048 C27.46,3.048 27.278,2.74 27.278,2.418 C27.278,2.026 27.516,1.648 28.006,1.648 C28.454,1.648 28.636,1.956 28.636,2.278 Z M28.454,9.838 C28.174,10.342 27.642,11.084 26.9,11.084 C26.606,11.084 26.214,10.958 26.214,10.398 C26.214,10.076 26.34,9.432 26.466,8.788 L26.802,7.01 C26.97,6.142 27.026,5.82 27.026,5.624 C27.026,5.484 27.012,5.316 26.788,5.316 C26.48,5.316 26.172,5.82 26.102,5.918 L25.92,5.778 C26.2,5.274 26.718,4.532 27.46,4.532 C27.754,4.532 28.132,4.658 28.132,5.218 C28.132,5.54 28.02,6.184 27.894,6.828 L27.558,8.606 C27.39,9.474 27.32,9.796 27.32,9.992 C27.32,10.132 27.348,10.3 27.572,10.3 C27.88,10.3 28.202,9.796 28.272,9.698 L28.454,9.838 Z M32.29,0.864 C32.038,1.788 30.82,9.6 30.82,10.02 C30.82,10.202 30.876,10.3 31.058,10.3 C31.366,10.3 31.646,9.866 31.772,9.698 L31.954,9.838 C31.674,10.342 31.114,11.098 30.4,11.098 C29.742,11.098 29.714,10.608 29.714,10.412 C29.714,10.216 29.77,9.866 29.826,9.544 C30.218,7.136 30.974,2.432 30.974,1.872 C30.974,1.48 30.834,1.354 30.218,1.312 L30.246,1.102 C30.624,1.102 31.212,1.046 31.38,1.018 C31.758,0.976 32.038,0.906 32.234,0.808 L32.29,0.864 Z M35.734,2.278 C35.734,2.67 35.496,3.048 35.006,3.048 C34.558,3.048 34.376,2.74 34.376,2.418 C34.376,2.026 34.614,1.648 35.104,1.648 C35.552,1.648 35.734,1.956 35.734,2.278 Z M35.552,9.838 C35.272,10.342 34.74,11.084 33.998,11.084 C33.704,11.084 33.312,10.958 33.312,10.398 C33.312,10.076 33.438,9.432 33.564,8.788 L33.9,7.01 C34.068,6.142 34.124,5.82 34.124,5.624 C34.124,5.484 34.11,5.316 33.886,5.316 C33.578,5.316 33.27,5.82 33.2,5.918 L33.018,5.778 C33.298,5.274 33.816,4.532 34.558,4.532 C34.852,4.532 35.23,4.658 35.23,5.218 C35.23,5.54 35.118,6.184 34.992,6.828 L34.656,8.606 C34.488,9.474 34.418,9.796 34.418,9.992 C34.418,10.132 34.446,10.3 34.67,10.3 C34.978,10.3 35.3,9.796 35.37,9.698 L35.552,9.838 Z M40.578,4.714 L40.508,5.204 L38.744,5.204 L38.1,9.18 C38.072,9.334 38.044,9.558 38.044,9.74 C38.044,10.048 38.156,10.356 38.618,10.356 C38.716,10.356 39.178,10.356 39.962,9.698 L40.06,9.796 C39.304,10.818 38.66,11.112 38.058,11.112 C37.19,11.112 36.966,10.58 36.966,9.978 C36.966,9.6 37.022,9.222 37.106,8.76 L37.736,5.204 L36.826,5.204 L36.868,4.966 C36.994,4.952 37.456,4.868 37.694,4.63 C37.75,4.56 38.044,4.322 38.324,3.272 L38.38,3.062 L39.136,2.964 C39.136,2.964 38.912,4.098 38.828,4.714 L40.578,4.714 Z M46.22,5.218 C46.22,5.526 46.108,5.876 45.842,6.478 C44.918,8.564 42.874,12.148 42.37,12.932 C41.39,14.472 40.732,14.752 39.696,14.752 C39.5,14.752 38.45,14.738 38.45,14.052 C38.45,13.772 38.646,13.506 38.968,13.506 C39.29,13.506 39.374,13.73 39.43,13.828 C39.584,14.108 39.626,14.304 39.934,14.304 C40.186,14.304 40.746,14.29 41.502,13.17 C41.754,12.806 41.866,12.638 42.65,11.196 L41.67,5.862 C41.6,5.498 41.586,5.344 41.348,5.344 C41.152,5.344 40.942,5.624 40.732,5.918 L40.55,5.792 C41.18,4.616 41.656,4.532 42.02,4.532 C42.356,4.532 42.552,4.7 42.65,5.022 C42.72,5.26 43.196,7.752 43.448,10.062 C44.848,7.178 45.226,6.254 45.226,5.96 C45.226,5.82 45.184,5.764 45.086,5.624 C44.988,5.484 44.89,5.358 44.89,5.106 C44.89,4.924 45.044,4.532 45.562,4.532 C46.066,4.532 46.22,4.854 46.22,5.218 Z" id="Mobility"></path>
        </g>
        <path d="M7.203125,43.03125 C7.203125,42.5937478 7.04817863,42.2421888 6.73828125,41.9765625 C6.42838387,41.7109362 5.88542055,41.4609387 5.109375,41.2265625 C3.75520156,40.8359355 2.7317743,40.3723985 2.0390625,39.8359375 C1.3463507,39.2994765 1,38.5651088 1,37.6328125 C1,36.7005162 1.39713145,35.938805 2.19140625,35.3476562 C2.98568105,34.7565075 3.99999383,34.4609375 5.234375,34.4609375 C6.48438125,34.4609375 7.50260023,34.7929654 8.2890625,35.4570312 C9.07552477,36.1210971 9.4557293,36.9400993 9.4296875,37.9140625 L9.4140625,37.9609375 L7.203125,37.9609375 C7.203125,37.4348932 7.02734551,37.0091162 6.67578125,36.6835938 C6.32421699,36.3580713 5.83073234,36.1953125 5.1953125,36.1953125 C4.58593445,36.1953125 4.114585,36.3307278 3.78125,36.6015625 C3.447915,36.8723972 3.28125,37.2187479 3.28125,37.640625 C3.28125,38.0260436 3.45963363,38.3424467 3.81640625,38.5898438 C4.17317887,38.8372408 4.78905812,39.098957 5.6640625,39.375 C6.91927711,39.7239601 7.86978844,40.184893 8.515625,40.7578125 C9.16146156,41.330732 9.484375,42.0833287 9.484375,43.015625 C9.484375,43.9895882 9.10026426,44.7578097 8.33203125,45.3203125 C7.56379824,45.8828153 6.54948547,46.1640625 5.2890625,46.1640625 C4.04947297,46.1640625 2.96875461,45.8450553 2.046875,45.2070312 C1.12499539,44.5690072 0.677083203,43.6744849 0.703125,42.5234375 L0.71875,42.4765625 L2.9375,42.4765625 C2.9375,43.1536492 3.14452918,43.649738 3.55859375,43.9648438 C3.97265832,44.2799495 4.54947547,44.4375 5.2890625,44.4375 C5.90885727,44.4375 6.38281086,44.3098971 6.7109375,44.0546875 C7.03906414,43.7994779 7.203125,43.4583355 7.203125,43.03125 Z M17.8125,43.546875 L13.8203125,43.546875 L13.046875,46 L10.7421875,46 L14.65625,34.625 L16.9921875,34.625 L20.890625,46 L18.5859375,46 L17.8125,43.546875 Z M14.3828125,41.7578125 L17.25,41.7578125 L15.84375,37.2890625 L15.796875,37.2890625 L14.3828125,41.7578125 Z M24.734375,41.875 L24.734375,46 L22.453125,46 L22.453125,34.625 L26.984375,34.625 C28.2916732,34.625 29.3203087,34.95833 30.0703125,35.625 C30.8203162,36.29167 31.1953125,37.1692654 31.1953125,38.2578125 C31.1953125,39.3463596 30.8203162,40.2213509 30.0703125,40.8828125 C29.3203087,41.5442741 28.2916732,41.875 26.984375,41.875 L24.734375,41.875 Z M24.734375,40.1171875 L26.984375,40.1171875 C27.6197948,40.1171875 28.1015609,39.9440121 28.4296875,39.5976562 C28.7578141,39.2513004 28.921875,38.8098985 28.921875,38.2734375 C28.921875,37.7265598 28.7591162,37.2747414 28.4335937,36.9179688 C28.1080713,36.5611961 27.6250032,36.3828125 26.984375,36.3828125 L24.734375,36.3828125 L24.734375,40.1171875 Z" id="SAP-Copy-2" fill="#00A7DD"></path>
        <g id="Group-13-Copy-2" transform="translate(0.000000, 1.000000)">
            <g id="Group-3">
                <mask id="mask-2" fill="white">
                    <use xlink:href="#path-1"></use>
                </mask>
                <g id="Clip-2"></g>
                <path d="M11.9165217,4.59502979 C16.1149565,4.59502979 18.9584348,7.8084766 18.9584348,12.0161362 C18.9584348,16.2243064 16.1149565,19.4382638 11.9165217,19.4382638 C7.71913043,19.4382638 4.8746087,16.2243064 4.8746087,12.0161362 C4.8746087,7.8084766 7.71913043,4.59502979 11.9165217,4.59502979 M11.9165217,23.5790298 C18.5525217,23.5790298 23.8335652,18.6763915 23.8335652,12.0161362 C23.8335652,5.35690213 18.5525217,0.453242553 11.9165217,0.453242553 C5.28052174,0.453242553 0,5.35690213 0,12.0161362 C0,18.6763915 5.28052174,23.5790298 11.9165217,23.5790298" id="Fill-1" fill="#2D333D" mask="url(#mask-2)"></path>
            </g>
            <path d="M40,23 L40,15.0823413 C40,11.1875 37.8023461,9 34.7522108,9 C32.818336,9 31.1790652,9.90079365 30.325573,11.5421627 L30.4261325,9.28918651 L26,9.28918651 L26,23 L30.4261325,23 L30.4261325,15.6617063 C30.4261325,13.9241071 31.475185,12.9573413 33.2448295,12.9573413 C34.8189136,12.9573413 35.5733622,13.827877 35.5733622,15.3725198 L35.5733622,23 L40,23 Z" id="Fill-4" fill="#2D333D"></path>
            <path d="M49.0327869,24 C51.1001354,24 52.3012937,23.2648146 53,22.6978626 L51.2994722,19.5600767 C50.9999533,19.7591787 50.466676,20.1609841 49.7340619,20.1609841 C49.0327869,20.1609841 48.567839,19.858987 48.567839,18.4236004 L48.567839,13.1497124 L52.2000841,13.1497124 L52.2000841,9.41204808 L48.567839,9.41204808 L48.567839,2 L44.1012564,2 L44.1012564,9.41204808 L42,9.41204808 L42,13.1497124 L44.1012564,13.1497124 L44.1012564,18.2908657 C44.1012564,22.564099 46.1670637,24 49.0327869,24" id="Fill-6" fill="#2D333D"></path>
            <path d="M58.7124471,15.2494794 C59.0931377,13.5272803 60.3403931,12.7156393 62.176571,12.7156393 C64.0127489,12.7156393 65.0528403,13.66212 65.2594704,15.2494794 L58.7124471,15.2494794 Z M62.1423996,9 C57.5693076,9 54,12.1075594 54,16.4661599 C54,20.89192 57.3952472,24 62.6624453,24 C65.7458786,24 67.5462833,23.0884007 68.9681332,21.8722407 L66.3006297,19.0676801 C65.5718182,19.5742399 64.2903913,20.2156393 62.5935686,20.2156393 C60.4786805,20.2156393 59.2324929,19.3711995 58.7813238,17.8858809 L69.9719175,17.8858809 C70.3184367,12.8515202 67.4437692,9 62.1423996,9 Z" id="Fill-8" fill="#2D333D"></path>
            <g id="Group-12" transform="translate(70.000000, 9.000000)">
                <mask id="mask-4" fill="white">
                    <use xlink:href="#path-3"></use>
                </mask>
                <g id="Clip-11"></g>
                <path d="M23.8785032,11.1450977 C21.869729,11.1450977 20.629471,9.6844 20.629471,7.59184186 C20.629471,5.46807442 21.869729,4.03909767 23.8785032,4.03909767 C25.8877935,4.03909767 27.0945032,5.46807442 27.0945032,7.59184186 C27.0945032,9.6844 25.8877935,11.1450977 23.8785032,11.1450977 Z M8.07256774,7.35802791 C6.69811613,7.35802791 5.9616,6.56142326 5.9616,5.36779535 C5.9616,4.23863256 6.69811613,3.47528372 8.07256774,3.47528372 C9.4459871,3.47528372 10.1825032,4.23863256 10.1825032,5.36779535 C10.1825032,6.56142326 9.4459871,7.35802791 8.07256774,7.35802791 Z M5.19153548,15.6919349 L8.94276129,15.924214 C10.7858581,16.0239814 11.3200516,16.2879814 11.3200516,17.0871442 C11.3200516,17.9487256 10.717729,18.646586 8.07256774,18.646586 C5.59308387,18.646586 4.78947097,17.9170047 4.78947097,16.7873302 C4.78947097,16.3570512 4.9252129,15.990214 5.19153548,15.6919349 Z M31.7138581,7.58109767 C31.7081806,3.31667907 28.3652129,0.25867907 24.0163097,0.193702326 C23.9698581,0.19267907 23.9249548,0.187562791 23.8785032,0.187562791 L21.7205677,0.187562791 L10.2485677,0.187562791 L8.13914839,0.187562791 C4.48753548,0.187562791 2.01063226,2.34612093 2.01063226,5.36779535 C2.01063226,6.59621395 2.47927742,7.72435349 3.28289032,8.5879814 C2.01063226,9.1528186 1.30714839,10.1126326 1.30714839,11.3773767 C1.30714839,12.672307 1.84392258,13.6009116 3.01553548,14.2307256 C1.40830968,14.8293302 0.403406452,15.8254698 0.403406452,17.3526791 C0.403406452,20.0361674 2.94276129,21.9936558 8.05140645,21.9997953 L8.11334194,21.9997953 C13.7412129,21.9880279 15.9419871,19.7353302 15.9419871,16.7550977 C15.9419871,13.9994698 13.7319226,12.4062605 9.84547097,12.2057023 L6.33114839,12.0409581 C5.29114839,12.0071907 4.85708387,11.5753767 4.85708387,10.9107721 C4.85708387,10.5459814 4.99076129,10.2461674 5.22456774,10.0481674 C6.0292129,10.4467256 6.99953548,10.6135163 8.13914839,10.6135163 C11.7886968,10.6135163 14.1345032,8.38946977 14.1345032,5.36779535 C14.1345032,4.73695814 13.9677935,4.13835349 13.6317935,3.64105116 L17.149729,3.64105116 C16.4281806,4.76202791 16.0090839,6.10095814 16.0090839,7.59184186 C16.0090839,11.8757023 19.4578581,14.928586 23.8785032,14.928586 C28.2960516,14.928586 31.7081806,11.880307 31.7138581,7.60207442 L31.7138581,7.58109767 Z" id="Fill-10" fill="#2D333D" mask="url(#mask-4)"></path>
            </g>
        </g>
    </g>
</svg>